<?xml version="1.0" encoding="UTF-8" standalone="no"?>
<!-- Created with Inkscape (http://www.inkscape.org/) -->

<svg
   width="521.4765"
   height="198.25055"
   viewBox="0 0 137.97398 52.453791"
   version="1.1"
   id="svg8"
   inkscape:export-filename="C:\Users\厂永刄先生\Documents\VENCAQ1\新しいフォルダー\pièces I.png"
   inkscape:export-xdpi="96"
   inkscape:export-ydpi="96"
   inkscape:version="1.3 (0e150ed6c4, 2023-07-21)"
   sodipodi:docname="night-logo.svg"
   xmlns:inkscape="http://www.inkscape.org/namespaces/inkscape"
   xmlns:sodipodi="http://sodipodi.sourceforge.net/DTD/sodipodi-0.dtd"
   xmlns="http://www.w3.org/2000/svg"
   xmlns:svg="http://www.w3.org/2000/svg"
   xmlns:rdf="http://www.w3.org/1999/02/22-rdf-syntax-ns#"
   xmlns:cc="http://creativecommons.org/ns#"
   xmlns:dc="http://purl.org/dc/elements/1.1/">
  <defs
     id="defs2">
    <filter
       inkscape:collect="always"
       style="color-interpolation-filters:sRGB"
       id="filter91"
       x="-0.036029944"
       y="-0.10965802"
       width="1.0720721"
       height="1.2193161">
      <feGaussianBlur
         inkscape:collect="always"
         stdDeviation="1.6926109"
         id="feGaussianBlur91" />
    </filter>
    <filter
       inkscape:collect="always"
       style="color-interpolation-filters:sRGB"
       id="filter108"
       x="-0.075890275"
       y="-0.23093287"
       width="1.1517927"
       height="1.4618658">
      <feGaussianBlur
         inkscape:collect="always"
         stdDeviation="3.8083746"
         id="feGaussianBlur108" />
    </filter>
    <filter
       inkscape:collect="always"
       style="color-interpolation-filters:sRGB"
       id="filter125"
       x="-0.012113748"
       y="-0.036893119"
       width="1.0242397"
       height="1.0737863">
      <feGaussianBlur
         inkscape:collect="always"
         stdDeviation="0.42315273"
         id="feGaussianBlur125" />
    </filter>
  </defs>
  <sodipodi:namedview
     id="base"
     pagecolor="#000000"
     bordercolor="#666666"
     borderopacity="1.0"
     inkscape:pageopacity="1"
     inkscape:pageshadow="2"
     inkscape:zoom="1.1496204"
     inkscape:cx="264.87005"
     inkscape:cy="296.18473"
     inkscape:document-units="px"
     inkscape:current-layer="g1286"
     showgrid="false"
     units="px"
     fit-margin-top="1"
     fit-margin-left="1"
     fit-margin-right="1"
     fit-margin-bottom="1"
     inkscape:window-width="1920"
     inkscape:window-height="1009"
     inkscape:window-x="-8"
     inkscape:window-y="-8"
     inkscape:window-maximized="1"
     showguides="true"
     inkscape:guide-bbox="true"
     inkscape:snap-intersection-paths="false"
     inkscape:snap-smooth-nodes="true"
     inkscape:pagecheckerboard="false"
     inkscape:snap-nodes="true"
     inkscape:showpageshadow="0"
     inkscape:deskcolor="#000000" />
  <metadata
     id="metadata5">
    <rdf:RDF>
      <cc:Work
         rdf:about="">
        <dc:format>image/svg+xml</dc:format>
        <dc:type
           rdf:resource="http://purl.org/dc/dcmitype/StillImage" />
      </cc:Work>
    </rdf:RDF>
  </metadata>
  <g
     inkscape:label="レイヤー 1"
     inkscape:groupmode="layer"
     id="layer1"
     transform="translate(-369.41375,-222.01951)">
    <g
       transform="translate(547.99099,8e-5)"
       id="g1763" />
    <g
       id="g2979">
      <g
         id="g1286">
        <g
           id="g1"
           transform="translate(0,-56.27129)">
          <g
             id="g125"
             style="stroke-width:1.05833;stroke-dasharray:none;filter:url(#filter125)">
            <g
               style="display:inline;fill:#e5ad00;fill-opacity:1;stroke:#ffc71a;stroke-width:6.66667;stroke-linecap:round;stroke-linejoin:round;stroke-miterlimit:4;stroke-dasharray:none;stroke-opacity:1"
               id="g110"
               transform="matrix(0.15874999,0,0,0.15874999,242.44481,266.84381)">
              <path
                 sodipodi:nodetypes="csccsc"
                 inkscape:connector-curvature="0"
                 id="path108"
                 d="m 935.59883,119.19129 c -13.78635,32.09386 -34.53665,26.68523 -39.53836,49.04658 -7.65503,34.22364 27.59519,35.30256 32.69359,101.4281 m 0.52364,13.45587 c -0.59916,20.35238 -12.18812,35.3124 -9.89796,50.47629 2.76406,18.30179 8.36238,12.45811 16.21909,35.59316"
                 style="fill:none;fill-opacity:1;stroke:#ffc71a;stroke-width:6.66667;stroke-linecap:round;stroke-linejoin:round;stroke-miterlimit:4;stroke-dasharray:none;stroke-opacity:1" />
              <path
                 sodipodi:nodetypes="cscccccssc"
                 inkscape:connector-curvature="0"
                 id="path109"
                 d="m 884.98018,241.92915 c 10.6709,0.0851 23.65848,8.06473 26.53209,27.20593 0.0266,0.17702 0.0521,0.35378 0.0766,0.53026 m -0.12185,13.44378 c -3.73969,23.19159 -25.12373,36.45766 -34.86813,17.512 -4.88817,15.41808 3.22774,29.1733 17.26254,28.50083 m 27.3518,-60.41304 c -1.80805,-23.14073 -13.8199,-57.8272 -41.32184,-63.32806 -16.99051,-3.39838 -37.15065,7.20227 -44.0867,26.70241 -11.18329,31.44167 15.60104,57.23393 28.69383,49.96014"
                 style="fill:none;fill-opacity:1;stroke:#ffc71a;stroke-width:6.66667;stroke-linecap:round;stroke-linejoin:round;stroke-miterlimit:4;stroke-dasharray:none;stroke-opacity:1" />
              <path
                 sodipodi:nodetypes="cszcc"
                 inkscape:connector-curvature="0"
                 id="path110"
                 d="m 935.59883,269.66292 h -24.47877 c -3.71503,0 -6.72671,3.01165 -6.72671,6.72671 0,3.71507 3.01168,6.72671 6.72671,6.72671 h 24.47877"
                 style="opacity:1;fill:none;fill-opacity:1;fill-rule:nonzero;stroke:#ffc71a;stroke-width:6.66667;stroke-linecap:round;stroke-linejoin:round;stroke-miterlimit:4;stroke-dasharray:none;stroke-dashoffset:0;stroke-opacity:1;paint-order:markers fill stroke" />
            </g>
            <g
               id="g124"
               style="stroke:#3367ff;stroke-width:1.05833;stroke-dasharray:none;stroke-opacity:1">
              <path
                 sodipodi:nodetypes="cccccccccccc"
                 inkscape:connector-curvature="0"
                 id="path111"
                 d="m 422.72101,293.70288 h -7.93744 m 0,-5.29163 h 7.93744 m 0,-2.64584 h -13.22906 l -6e-5,18.52075 h 13.22907 m 0,-2.64582 h -7.93744 m 5e-5,-5.29164 h 7.93744"
                 style="fill:none;fill-opacity:1;fill-rule:evenodd;stroke:#3367ff;stroke-width:1.05833;stroke-linecap:round;stroke-linejoin:round;stroke-miterlimit:4;stroke-dasharray:none;stroke-dashoffset:0;stroke-opacity:1" />
              <path
                 style="fill:none;fill-opacity:1;fill-rule:evenodd;stroke:#3367ff;stroke-width:1.05833;stroke-linecap:round;stroke-linejoin:round;stroke-miterlimit:4;stroke-dasharray:none;stroke-dashoffset:0;stroke-opacity:1"
                 d="m 431.98143,301.64036 h 1.32292 v -5.29166 h -1.32292 v -2.64582 h 6.6146 m 0,10.58328 h -7.93754 c -2.92248,0 -5.29164,-2.36914 -5.29164,-5.29164 v -7.93745 c 0,-2.9225 2.36916,-5.29164 5.29164,-5.29164 h 2.6459 c 2.9225,0 5.29164,2.36914 5.29164,5.29164 h -5.29168 v -1.32294 c 0,-0.73062 -0.59224,-1.3229 -1.32292,-1.3229"
                 id="path112"
                 inkscape:connector-curvature="0"
                 sodipodi:nodetypes="cccccccsssssccsc" />
              <path
                 sodipodi:nodetypes="ccsccsccsccsszssssc"
                 inkscape:connector-curvature="0"
                 id="path113"
                 d="m 462.40852,298.99454 h -5.29167 c -4e-5,2.92252 2.36913,5.29162 5.29161,5.29162 h 2.64588 m 5.29166,-5.2916 c 0,-2.9225 -2.36914,-5.29164 -5.29166,-5.29164 h -1.32292 m 0,-5.29167 c 0.73062,0 1.3229,0.59228 1.3229,1.3229 v 1.32296 h 5.29168 c 0,-2.9225 -2.36914,-5.29166 -5.29166,-5.29166 h -2.64588 c -2.92248,0 -5.29161,2.36916 -5.29161,5.29164 0,2.92247 2.36913,5.29161 5.29161,5.29161 h 1.32296 c 0.73062,0 1.3229,0.59232 1.3229,1.32294 v 2.64584 c 0,0.7306 -0.5923,1.3229 -1.3229,1.3229"
                 style="fill:none;fill-opacity:1;fill-rule:evenodd;stroke:#3367ff;stroke-width:1.05833;stroke-linecap:round;stroke-linejoin:round;stroke-miterlimit:4;stroke-dasharray:none;stroke-dashoffset:0;stroke-opacity:1" />
              <path
                 sodipodi:nodetypes="cccccccccccc"
                 inkscape:connector-curvature="0"
                 id="path114"
                 d="m 454.47098,293.70288 h -7.93744 m 0,-5.29163 h 7.93744 m 0,-2.64584 h -13.22906 l -6e-5,18.52075 h 13.22907 m 0,-2.64582 h -7.93744 m 5e-5,-5.29164 h 7.93744"
                 style="fill:none;fill-opacity:1;fill-rule:evenodd;stroke:#3367ff;stroke-width:1.05833;stroke-linecap:round;stroke-linejoin:round;stroke-miterlimit:4;stroke-dasharray:none;stroke-dashoffset:0;stroke-opacity:1" />
              <path
                 sodipodi:nodetypes="csssscccccccccsc"
                 inkscape:connector-curvature="0"
                 id="path115"
                 d="m 398.9085,293.7029 h 1.32296 c 0.73064,0 1.3229,-0.59226 1.3229,-1.32292 v -2.64587 c 0,-0.73058 -0.5923,-1.3229 -1.3229,-1.3229 h -1.32288 m 5.10076,7.33479 2.83668,8.54018 h -5.02708 l -2.64578,-7.9375 h -0.26458 m 0,7.9375 h -5.29164 l -4e-5,-18.52075 h 7.9375 c 2.9225,0 5.29166,2.36914 5.29166,5.29162"
                 style="fill:none;fill-opacity:1;fill-rule:evenodd;stroke:#3367ff;stroke-width:1.05833;stroke-linecap:round;stroke-linejoin:round;stroke-miterlimit:4;stroke-dasharray:none;stroke-dashoffset:0;stroke-opacity:1" />
              <path
                 sodipodi:nodetypes="cscccssscccccc"
                 inkscape:connector-curvature="0"
                 id="path116"
                 d="m 431.98145,309.57788 c 0.73066,0 1.3229,0.59228 1.3229,1.32292 v 6.61454 h -2.6458 m 7.93748,-5.29162 c 0,-2.9225 -2.36914,-5.29163 -5.29162,-5.29163 h -2.6459 c -2.92249,0 -5.29163,2.36913 -5.29163,5.29163 l 6e-5,13.2291 h 5.29161 m 0,-5.29164 h 2.6458 v 5.29164 h 5.29164"
                 style="fill:none;fill-opacity:1;fill-rule:evenodd;stroke:#3367ff;stroke-width:1.05833;stroke-linecap:round;stroke-linejoin:round;stroke-miterlimit:4;stroke-dasharray:none;stroke-dashoffset:0;stroke-opacity:1" />
              <path
                 sodipodi:nodetypes="cscccsssssccsc"
                 inkscape:connector-curvature="0"
                 id="path117"
                 d="m 463.73151,322.80702 c 0.73068,0 1.32292,-0.59228 1.32292,-1.32292 v -1.32292 h 5.29167 m -5.29163,5.29164 h -2.6459 c -2.92248,0 -5.29164,-2.36914 -5.29164,-5.29164 v -7.93746 c 0,-2.9225 2.36916,-5.29163 5.29164,-5.29163 h 2.6459 c 2.92249,0 5.29163,2.36913 5.29163,5.29163 h -5.29167 v -1.32294 c 0,-0.73062 -0.59224,-1.3229 -1.32292,-1.3229"
                 style="fill:none;fill-opacity:1;fill-rule:evenodd;stroke:#3367ff;stroke-width:1.05833;stroke-linecap:round;stroke-linejoin:round;stroke-miterlimit:4;stroke-dasharray:none;stroke-dashoffset:0;stroke-opacity:1" />
              <path
                 style="fill:none;fill-opacity:1;fill-rule:evenodd;stroke:#3367ff;stroke-width:1.05833;stroke-linecap:round;stroke-linejoin:round;stroke-miterlimit:4;stroke-dasharray:none;stroke-dashoffset:0;stroke-opacity:1"
                 d="m 406.84602,314.86954 h -7.93744 m 0,-5.29162 h 7.93744 m 0,-2.64583 h -13.22906 l -6e-5,18.52073 h 5.29163 m 5e-5,-7.93746 h 7.93744"
                 id="path118"
                 inkscape:connector-curvature="0"
                 sodipodi:nodetypes="cccccccccc" />
              <path
                 style="fill:none;fill-opacity:1;fill-rule:evenodd;stroke:#3367ff;stroke-width:1.05833;stroke-linecap:round;stroke-linejoin:round;stroke-miterlimit:4;stroke-dasharray:none;stroke-dashoffset:0;stroke-opacity:1"
                 d="m 446.53354,325.45282 h -5.29164 l -4e-5,-13.2291 c 0,-2.92252 2.36912,-5.29161 5.29164,-5.29161 h 2.64588 c 2.92249,0 5.29164,2.36909 5.29163,5.29161 m -6e-5,13.2291 h -5.29161 v -14.55204 c 0,-0.7306 -0.59232,-1.3229 -1.3229,-1.3229"
                 id="path119"
                 inkscape:connector-curvature="0"
                 sodipodi:nodetypes="ccssscccsc" />
              <path
                 sodipodi:nodetypes="csssscccccccccsc"
                 inkscape:connector-curvature="0"
                 id="path120"
                 d="m 414.78344,314.86956 h 1.32296 c 0.73064,0 1.3229,-0.59226 1.3229,-1.32292 v -2.64588 c 0,-0.73058 -0.5923,-1.3229 -1.3229,-1.3229 h -1.32288 m 5.10076,7.3348 2.83668,8.54018 h -5.02708 l -2.64578,-7.9375 h -0.26458 m 0,7.9375 h -5.29164 l -4e-5,-18.52075 h 7.9375 c 2.9225,0 5.29166,2.36913 5.29166,5.29161"
                 style="fill:none;fill-opacity:1;fill-rule:evenodd;stroke:#3367ff;stroke-width:1.05833;stroke-linecap:round;stroke-linejoin:round;stroke-miterlimit:4;stroke-dasharray:none;stroke-dashoffset:0;stroke-opacity:1" />
              <path
                 style="fill:none;fill-opacity:1;fill-rule:evenodd;stroke:#3367ff;stroke-width:1.05833;stroke-linecap:round;stroke-linejoin:round;stroke-miterlimit:4;stroke-dasharray:none;stroke-dashoffset:0;stroke-opacity:1"
                 d="m 487.54405,309.57792 c 0.73066,0 1.3229,0.59226 1.3229,1.3229 v 6.61456 h -2.6458 m 0,2.64584 h 2.6458 v 5.29162 h 13.22906 m 0,-2.64582 h -7.93743 m 5e-5,-5.29164 h 7.93744 m 0,-2.6458 h -7.93744 m 0,-5.29164 h 7.93744 m 0,-2.64583 -15.87496,2e-5 c -2.9225,0 -5.29164,2.36913 -5.29164,5.29161 l 6e-5,13.2291 h 5.29162"
                 id="path121"
                 inkscape:connector-curvature="0"
                 sodipodi:nodetypes="cscccccccccccccccsscc" />
              <path
                 sodipodi:nodetypes="cccc"
                 inkscape:connector-curvature="0"
                 id="path122"
                 d="m 478.28356,306.93209 h -5.29163 l 5e-5,18.52073 h 5.29166"
                 style="fill:none;fill-opacity:1;fill-rule:evenodd;stroke:#3367ff;stroke-width:1.05833;stroke-linecap:round;stroke-linejoin:round;stroke-miterlimit:4;stroke-dasharray:none;stroke-dashoffset:0;stroke-opacity:1" />
              <path
                 sodipodi:nodetypes="cccc"
                 inkscape:connector-curvature="0"
                 id="path123"
                 d="m 417.69395,284.90539 h -3.175 v -1.32292 h 3.175"
                 style="fill:none;fill-opacity:1;fill-rule:evenodd;stroke:#3367ff;stroke-width:1.05833;stroke-linecap:round;stroke-linejoin:round;stroke-miterlimit:4;stroke-dasharray:none;stroke-dashoffset:0;stroke-opacity:1" />
              <path
                 style="fill:none;fill-opacity:1;fill-rule:evenodd;stroke:#3367ff;stroke-width:1.05833;stroke-linecap:round;stroke-linejoin:round;stroke-miterlimit:4;stroke-dasharray:none;stroke-dashoffset:0;stroke-opacity:1"
                 d="m 449.44392,284.90539 h -3.175 v -1.32292 h 3.175"
                 id="path124"
                 inkscape:connector-curvature="0"
                 sodipodi:nodetypes="cccc" />
            </g>
          </g>
          <g
             id="g108"
             style="stroke-width:1.05833;stroke-dasharray:none;filter:url(#filter108)">
            <g
               style="display:inline;fill:#e5ad00;fill-opacity:1;stroke:#ffc71a;stroke-width:6.66667;stroke-linecap:round;stroke-linejoin:round;stroke-miterlimit:4;stroke-dasharray:none;stroke-opacity:1"
               id="g93"
               transform="matrix(0.15874999,0,0,0.15874999,242.44481,266.84381)">
              <path
                 sodipodi:nodetypes="csccsc"
                 inkscape:connector-curvature="0"
                 id="path91"
                 d="m 935.59883,119.19129 c -13.78635,32.09386 -34.53665,26.68523 -39.53836,49.04658 -7.65503,34.22364 27.59519,35.30256 32.69359,101.4281 m 0.52364,13.45587 c -0.59916,20.35238 -12.18812,35.3124 -9.89796,50.47629 2.76406,18.30179 8.36238,12.45811 16.21909,35.59316"
                 style="fill:none;fill-opacity:1;stroke:#ffc71a;stroke-width:6.66667;stroke-linecap:round;stroke-linejoin:round;stroke-miterlimit:4;stroke-dasharray:none;stroke-opacity:1" />
              <path
                 sodipodi:nodetypes="cscccccssc"
                 inkscape:connector-curvature="0"
                 id="path92"
                 d="m 884.98018,241.92915 c 10.6709,0.0851 23.65848,8.06473 26.53209,27.20593 0.0266,0.17702 0.0521,0.35378 0.0766,0.53026 m -0.12185,13.44378 c -3.73969,23.19159 -25.12373,36.45766 -34.86813,17.512 -4.88817,15.41808 3.22774,29.1733 17.26254,28.50083 m 27.3518,-60.41304 c -1.80805,-23.14073 -13.8199,-57.8272 -41.32184,-63.32806 -16.99051,-3.39838 -37.15065,7.20227 -44.0867,26.70241 -11.18329,31.44167 15.60104,57.23393 28.69383,49.96014"
                 style="fill:none;fill-opacity:1;stroke:#ffc71a;stroke-width:6.66667;stroke-linecap:round;stroke-linejoin:round;stroke-miterlimit:4;stroke-dasharray:none;stroke-opacity:1" />
              <path
                 sodipodi:nodetypes="cszcc"
                 inkscape:connector-curvature="0"
                 id="path93"
                 d="m 935.59883,269.66292 h -24.47877 c -3.71503,0 -6.72671,3.01165 -6.72671,6.72671 0,3.71507 3.01168,6.72671 6.72671,6.72671 h 24.47877"
                 style="opacity:1;fill:none;fill-opacity:1;fill-rule:nonzero;stroke:#ffc71a;stroke-width:6.66667;stroke-linecap:round;stroke-linejoin:round;stroke-miterlimit:4;stroke-dasharray:none;stroke-dashoffset:0;stroke-opacity:1;paint-order:markers fill stroke" />
            </g>
            <g
               id="g107"
               style="stroke:#3367ff;stroke-width:1.05833;stroke-dasharray:none;stroke-opacity:1">
              <path
                 sodipodi:nodetypes="cccccccccccc"
                 inkscape:connector-curvature="0"
                 id="path94"
                 d="m 422.72101,293.70288 h -7.93744 m 0,-5.29163 h 7.93744 m 0,-2.64584 h -13.22906 l -6e-5,18.52075 h 13.22907 m 0,-2.64582 h -7.93744 m 5e-5,-5.29164 h 7.93744"
                 style="fill:none;fill-opacity:1;fill-rule:evenodd;stroke:#3367ff;stroke-width:1.05833;stroke-linecap:round;stroke-linejoin:round;stroke-miterlimit:4;stroke-dasharray:none;stroke-dashoffset:0;stroke-opacity:1" />
              <path
                 style="fill:none;fill-opacity:1;fill-rule:evenodd;stroke:#3367ff;stroke-width:1.05833;stroke-linecap:round;stroke-linejoin:round;stroke-miterlimit:4;stroke-dasharray:none;stroke-dashoffset:0;stroke-opacity:1"
                 d="m 431.98143,301.64036 h 1.32292 v -5.29166 h -1.32292 v -2.64582 h 6.6146 m 0,10.58328 h -7.93754 c -2.92248,0 -5.29164,-2.36914 -5.29164,-5.29164 v -7.93745 c 0,-2.9225 2.36916,-5.29164 5.29164,-5.29164 h 2.6459 c 2.9225,0 5.29164,2.36914 5.29164,5.29164 h -5.29168 v -1.32294 c 0,-0.73062 -0.59224,-1.3229 -1.32292,-1.3229"
                 id="path95"
                 inkscape:connector-curvature="0"
                 sodipodi:nodetypes="cccccccsssssccsc" />
              <path
                 sodipodi:nodetypes="ccsccsccsccsszssssc"
                 inkscape:connector-curvature="0"
                 id="path96"
                 d="m 462.40852,298.99454 h -5.29167 c -4e-5,2.92252 2.36913,5.29162 5.29161,5.29162 h 2.64588 m 5.29166,-5.2916 c 0,-2.9225 -2.36914,-5.29164 -5.29166,-5.29164 h -1.32292 m 0,-5.29167 c 0.73062,0 1.3229,0.59228 1.3229,1.3229 v 1.32296 h 5.29168 c 0,-2.9225 -2.36914,-5.29166 -5.29166,-5.29166 h -2.64588 c -2.92248,0 -5.29161,2.36916 -5.29161,5.29164 0,2.92247 2.36913,5.29161 5.29161,5.29161 h 1.32296 c 0.73062,0 1.3229,0.59232 1.3229,1.32294 v 2.64584 c 0,0.7306 -0.5923,1.3229 -1.3229,1.3229"
                 style="fill:none;fill-opacity:1;fill-rule:evenodd;stroke:#3367ff;stroke-width:1.05833;stroke-linecap:round;stroke-linejoin:round;stroke-miterlimit:4;stroke-dasharray:none;stroke-dashoffset:0;stroke-opacity:1" />
              <path
                 sodipodi:nodetypes="cccccccccccc"
                 inkscape:connector-curvature="0"
                 id="path97"
                 d="m 454.47098,293.70288 h -7.93744 m 0,-5.29163 h 7.93744 m 0,-2.64584 h -13.22906 l -6e-5,18.52075 h 13.22907 m 0,-2.64582 h -7.93744 m 5e-5,-5.29164 h 7.93744"
                 style="fill:none;fill-opacity:1;fill-rule:evenodd;stroke:#3367ff;stroke-width:1.05833;stroke-linecap:round;stroke-linejoin:round;stroke-miterlimit:4;stroke-dasharray:none;stroke-dashoffset:0;stroke-opacity:1" />
              <path
                 sodipodi:nodetypes="csssscccccccccsc"
                 inkscape:connector-curvature="0"
                 id="path98"
                 d="m 398.9085,293.7029 h 1.32296 c 0.73064,0 1.3229,-0.59226 1.3229,-1.32292 v -2.64587 c 0,-0.73058 -0.5923,-1.3229 -1.3229,-1.3229 h -1.32288 m 5.10076,7.33479 2.83668,8.54018 h -5.02708 l -2.64578,-7.9375 h -0.26458 m 0,7.9375 h -5.29164 l -4e-5,-18.52075 h 7.9375 c 2.9225,0 5.29166,2.36914 5.29166,5.29162"
                 style="fill:none;fill-opacity:1;fill-rule:evenodd;stroke:#3367ff;stroke-width:1.05833;stroke-linecap:round;stroke-linejoin:round;stroke-miterlimit:4;stroke-dasharray:none;stroke-dashoffset:0;stroke-opacity:1" />
              <path
                 sodipodi:nodetypes="cscccssscccccc"
                 inkscape:connector-curvature="0"
                 id="path99"
                 d="m 431.98145,309.57788 c 0.73066,0 1.3229,0.59228 1.3229,1.32292 v 6.61454 h -2.6458 m 7.93748,-5.29162 c 0,-2.9225 -2.36914,-5.29163 -5.29162,-5.29163 h -2.6459 c -2.92249,0 -5.29163,2.36913 -5.29163,5.29163 l 6e-5,13.2291 h 5.29161 m 0,-5.29164 h 2.6458 v 5.29164 h 5.29164"
                 style="fill:none;fill-opacity:1;fill-rule:evenodd;stroke:#3367ff;stroke-width:1.05833;stroke-linecap:round;stroke-linejoin:round;stroke-miterlimit:4;stroke-dasharray:none;stroke-dashoffset:0;stroke-opacity:1" />
              <path
                 sodipodi:nodetypes="cscccsssssccsc"
                 inkscape:connector-curvature="0"
                 id="path100"
                 d="m 463.73151,322.80702 c 0.73068,0 1.32292,-0.59228 1.32292,-1.32292 v -1.32292 h 5.29167 m -5.29163,5.29164 h -2.6459 c -2.92248,0 -5.29164,-2.36914 -5.29164,-5.29164 v -7.93746 c 0,-2.9225 2.36916,-5.29163 5.29164,-5.29163 h 2.6459 c 2.92249,0 5.29163,2.36913 5.29163,5.29163 h -5.29167 v -1.32294 c 0,-0.73062 -0.59224,-1.3229 -1.32292,-1.3229"
                 style="fill:none;fill-opacity:1;fill-rule:evenodd;stroke:#3367ff;stroke-width:1.05833;stroke-linecap:round;stroke-linejoin:round;stroke-miterlimit:4;stroke-dasharray:none;stroke-dashoffset:0;stroke-opacity:1" />
              <path
                 style="fill:none;fill-opacity:1;fill-rule:evenodd;stroke:#3367ff;stroke-width:1.05833;stroke-linecap:round;stroke-linejoin:round;stroke-miterlimit:4;stroke-dasharray:none;stroke-dashoffset:0;stroke-opacity:1"
                 d="m 406.84602,314.86954 h -7.93744 m 0,-5.29162 h 7.93744 m 0,-2.64583 h -13.22906 l -6e-5,18.52073 h 5.29163 m 5e-5,-7.93746 h 7.93744"
                 id="path101"
                 inkscape:connector-curvature="0"
                 sodipodi:nodetypes="cccccccccc" />
              <path
                 style="fill:none;fill-opacity:1;fill-rule:evenodd;stroke:#3367ff;stroke-width:1.05833;stroke-linecap:round;stroke-linejoin:round;stroke-miterlimit:4;stroke-dasharray:none;stroke-dashoffset:0;stroke-opacity:1"
                 d="m 446.53354,325.45282 h -5.29164 l -4e-5,-13.2291 c 0,-2.92252 2.36912,-5.29161 5.29164,-5.29161 h 2.64588 c 2.92249,0 5.29164,2.36909 5.29163,5.29161 m -6e-5,13.2291 h -5.29161 v -14.55204 c 0,-0.7306 -0.59232,-1.3229 -1.3229,-1.3229"
                 id="path102"
                 inkscape:connector-curvature="0"
                 sodipodi:nodetypes="ccssscccsc" />
              <path
                 sodipodi:nodetypes="csssscccccccccsc"
                 inkscape:connector-curvature="0"
                 id="path103"
                 d="m 414.78344,314.86956 h 1.32296 c 0.73064,0 1.3229,-0.59226 1.3229,-1.32292 v -2.64588 c 0,-0.73058 -0.5923,-1.3229 -1.3229,-1.3229 h -1.32288 m 5.10076,7.3348 2.83668,8.54018 h -5.02708 l -2.64578,-7.9375 h -0.26458 m 0,7.9375 h -5.29164 l -4e-5,-18.52075 h 7.9375 c 2.9225,0 5.29166,2.36913 5.29166,5.29161"
                 style="fill:none;fill-opacity:1;fill-rule:evenodd;stroke:#3367ff;stroke-width:1.05833;stroke-linecap:round;stroke-linejoin:round;stroke-miterlimit:4;stroke-dasharray:none;stroke-dashoffset:0;stroke-opacity:1" />
              <path
                 style="fill:none;fill-opacity:1;fill-rule:evenodd;stroke:#3367ff;stroke-width:1.05833;stroke-linecap:round;stroke-linejoin:round;stroke-miterlimit:4;stroke-dasharray:none;stroke-dashoffset:0;stroke-opacity:1"
                 d="m 487.54405,309.57792 c 0.73066,0 1.3229,0.59226 1.3229,1.3229 v 6.61456 h -2.6458 m 0,2.64584 h 2.6458 v 5.29162 h 13.22906 m 0,-2.64582 h -7.93743 m 5e-5,-5.29164 h 7.93744 m 0,-2.6458 h -7.93744 m 0,-5.29164 h 7.93744 m 0,-2.64583 -15.87496,2e-5 c -2.9225,0 -5.29164,2.36913 -5.29164,5.29161 l 6e-5,13.2291 h 5.29162"
                 id="path104"
                 inkscape:connector-curvature="0"
                 sodipodi:nodetypes="cscccccccccccccccsscc" />
              <path
                 sodipodi:nodetypes="cccc"
                 inkscape:connector-curvature="0"
                 id="path105"
                 d="m 478.28356,306.93209 h -5.29163 l 5e-5,18.52073 h 5.29166"
                 style="fill:none;fill-opacity:1;fill-rule:evenodd;stroke:#3367ff;stroke-width:1.05833;stroke-linecap:round;stroke-linejoin:round;stroke-miterlimit:4;stroke-dasharray:none;stroke-dashoffset:0;stroke-opacity:1" />
              <path
                 sodipodi:nodetypes="cccc"
                 inkscape:connector-curvature="0"
                 id="path106"
                 d="m 417.69395,284.90539 h -3.175 v -1.32292 h 3.175"
                 style="fill:none;fill-opacity:1;fill-rule:evenodd;stroke:#3367ff;stroke-width:1.05833;stroke-linecap:round;stroke-linejoin:round;stroke-miterlimit:4;stroke-dasharray:none;stroke-dashoffset:0;stroke-opacity:1" />
              <path
                 style="fill:none;fill-opacity:1;fill-rule:evenodd;stroke:#3367ff;stroke-width:1.05833;stroke-linecap:round;stroke-linejoin:round;stroke-miterlimit:4;stroke-dasharray:none;stroke-dashoffset:0;stroke-opacity:1"
                 d="m 449.44392,284.90539 h -3.175 v -1.32292 h 3.175"
                 id="path107"
                 inkscape:connector-curvature="0"
                 sodipodi:nodetypes="cccc" />
            </g>
          </g>
          <g
             id="g91"
             style="stroke-width:1.05833;stroke-dasharray:none;filter:url(#filter91)">
            <g
               style="display:inline;fill:#e5ad00;fill-opacity:1;stroke:#ffc71a;stroke-width:6.66667;stroke-linecap:round;stroke-linejoin:round;stroke-miterlimit:4;stroke-dasharray:none;stroke-opacity:1"
               id="g76"
               transform="matrix(0.15874999,0,0,0.15874999,242.44481,266.84381)">
              <path
                 sodipodi:nodetypes="csccsc"
                 inkscape:connector-curvature="0"
                 id="path74"
                 d="m 935.59883,119.19129 c -13.78635,32.09386 -34.53665,26.68523 -39.53836,49.04658 -7.65503,34.22364 27.59519,35.30256 32.69359,101.4281 m 0.52364,13.45587 c -0.59916,20.35238 -12.18812,35.3124 -9.89796,50.47629 2.76406,18.30179 8.36238,12.45811 16.21909,35.59316"
                 style="fill:none;fill-opacity:1;stroke:#ffc71a;stroke-width:6.66667;stroke-linecap:round;stroke-linejoin:round;stroke-miterlimit:4;stroke-dasharray:none;stroke-opacity:1" />
              <path
                 sodipodi:nodetypes="cscccccssc"
                 inkscape:connector-curvature="0"
                 id="path75"
                 d="m 884.98018,241.92915 c 10.6709,0.0851 23.65848,8.06473 26.53209,27.20593 0.0266,0.17702 0.0521,0.35378 0.0766,0.53026 m -0.12185,13.44378 c -3.73969,23.19159 -25.12373,36.45766 -34.86813,17.512 -4.88817,15.41808 3.22774,29.1733 17.26254,28.50083 m 27.3518,-60.41304 c -1.80805,-23.14073 -13.8199,-57.8272 -41.32184,-63.32806 -16.99051,-3.39838 -37.15065,7.20227 -44.0867,26.70241 -11.18329,31.44167 15.60104,57.23393 28.69383,49.96014"
                 style="fill:none;fill-opacity:1;stroke:#ffc71a;stroke-width:6.66667;stroke-linecap:round;stroke-linejoin:round;stroke-miterlimit:4;stroke-dasharray:none;stroke-opacity:1" />
              <path
                 sodipodi:nodetypes="cszcc"
                 inkscape:connector-curvature="0"
                 id="path76"
                 d="m 935.59883,269.66292 h -24.47877 c -3.71503,0 -6.72671,3.01165 -6.72671,6.72671 0,3.71507 3.01168,6.72671 6.72671,6.72671 h 24.47877"
                 style="opacity:1;fill:none;fill-opacity:1;fill-rule:nonzero;stroke:#ffc71a;stroke-width:6.66667;stroke-linecap:round;stroke-linejoin:round;stroke-miterlimit:4;stroke-dasharray:none;stroke-dashoffset:0;stroke-opacity:1;paint-order:markers fill stroke" />
            </g>
            <g
               id="g90"
               style="stroke:#3367ff;stroke-width:1.05833;stroke-dasharray:none;stroke-opacity:1">
              <path
                 sodipodi:nodetypes="cccccccccccc"
                 inkscape:connector-curvature="0"
                 id="path77"
                 d="m 422.72101,293.70288 h -7.93744 m 0,-5.29163 h 7.93744 m 0,-2.64584 h -13.22906 l -6e-5,18.52075 h 13.22907 m 0,-2.64582 h -7.93744 m 5e-5,-5.29164 h 7.93744"
                 style="fill:none;fill-opacity:1;fill-rule:evenodd;stroke:#3367ff;stroke-width:1.05833;stroke-linecap:round;stroke-linejoin:round;stroke-miterlimit:4;stroke-dasharray:none;stroke-dashoffset:0;stroke-opacity:1" />
              <path
                 style="fill:none;fill-opacity:1;fill-rule:evenodd;stroke:#3367ff;stroke-width:1.05833;stroke-linecap:round;stroke-linejoin:round;stroke-miterlimit:4;stroke-dasharray:none;stroke-dashoffset:0;stroke-opacity:1"
                 d="m 431.98143,301.64036 h 1.32292 v -5.29166 h -1.32292 v -2.64582 h 6.6146 m 0,10.58328 h -7.93754 c -2.92248,0 -5.29164,-2.36914 -5.29164,-5.29164 v -7.93745 c 0,-2.9225 2.36916,-5.29164 5.29164,-5.29164 h 2.6459 c 2.9225,0 5.29164,2.36914 5.29164,5.29164 h -5.29168 v -1.32294 c 0,-0.73062 -0.59224,-1.3229 -1.32292,-1.3229"
                 id="path78"
                 inkscape:connector-curvature="0"
                 sodipodi:nodetypes="cccccccsssssccsc" />
              <path
                 sodipodi:nodetypes="ccsccsccsccsszssssc"
                 inkscape:connector-curvature="0"
                 id="path79"
                 d="m 462.40852,298.99454 h -5.29167 c -4e-5,2.92252 2.36913,5.29162 5.29161,5.29162 h 2.64588 m 5.29166,-5.2916 c 0,-2.9225 -2.36914,-5.29164 -5.29166,-5.29164 h -1.32292 m 0,-5.29167 c 0.73062,0 1.3229,0.59228 1.3229,1.3229 v 1.32296 h 5.29168 c 0,-2.9225 -2.36914,-5.29166 -5.29166,-5.29166 h -2.64588 c -2.92248,0 -5.29161,2.36916 -5.29161,5.29164 0,2.92247 2.36913,5.29161 5.29161,5.29161 h 1.32296 c 0.73062,0 1.3229,0.59232 1.3229,1.32294 v 2.64584 c 0,0.7306 -0.5923,1.3229 -1.3229,1.3229"
                 style="fill:none;fill-opacity:1;fill-rule:evenodd;stroke:#3367ff;stroke-width:1.05833;stroke-linecap:round;stroke-linejoin:round;stroke-miterlimit:4;stroke-dasharray:none;stroke-dashoffset:0;stroke-opacity:1" />
              <path
                 sodipodi:nodetypes="cccccccccccc"
                 inkscape:connector-curvature="0"
                 id="path80"
                 d="m 454.47098,293.70288 h -7.93744 m 0,-5.29163 h 7.93744 m 0,-2.64584 h -13.22906 l -6e-5,18.52075 h 13.22907 m 0,-2.64582 h -7.93744 m 5e-5,-5.29164 h 7.93744"
                 style="fill:none;fill-opacity:1;fill-rule:evenodd;stroke:#3367ff;stroke-width:1.05833;stroke-linecap:round;stroke-linejoin:round;stroke-miterlimit:4;stroke-dasharray:none;stroke-dashoffset:0;stroke-opacity:1" />
              <path
                 sodipodi:nodetypes="csssscccccccccsc"
                 inkscape:connector-curvature="0"
                 id="path81"
                 d="m 398.9085,293.7029 h 1.32296 c 0.73064,0 1.3229,-0.59226 1.3229,-1.32292 v -2.64587 c 0,-0.73058 -0.5923,-1.3229 -1.3229,-1.3229 h -1.32288 m 5.10076,7.33479 2.83668,8.54018 h -5.02708 l -2.64578,-7.9375 h -0.26458 m 0,7.9375 h -5.29164 l -4e-5,-18.52075 h 7.9375 c 2.9225,0 5.29166,2.36914 5.29166,5.29162"
                 style="fill:none;fill-opacity:1;fill-rule:evenodd;stroke:#3367ff;stroke-width:1.05833;stroke-linecap:round;stroke-linejoin:round;stroke-miterlimit:4;stroke-dasharray:none;stroke-dashoffset:0;stroke-opacity:1" />
              <path
                 sodipodi:nodetypes="cscccssscccccc"
                 inkscape:connector-curvature="0"
                 id="path82"
                 d="m 431.98145,309.57788 c 0.73066,0 1.3229,0.59228 1.3229,1.32292 v 6.61454 h -2.6458 m 7.93748,-5.29162 c 0,-2.9225 -2.36914,-5.29163 -5.29162,-5.29163 h -2.6459 c -2.92249,0 -5.29163,2.36913 -5.29163,5.29163 l 6e-5,13.2291 h 5.29161 m 0,-5.29164 h 2.6458 v 5.29164 h 5.29164"
                 style="fill:none;fill-opacity:1;fill-rule:evenodd;stroke:#3367ff;stroke-width:1.05833;stroke-linecap:round;stroke-linejoin:round;stroke-miterlimit:4;stroke-dasharray:none;stroke-dashoffset:0;stroke-opacity:1" />
              <path
                 sodipodi:nodetypes="cscccsssssccsc"
                 inkscape:connector-curvature="0"
                 id="path83"
                 d="m 463.73151,322.80702 c 0.73068,0 1.32292,-0.59228 1.32292,-1.32292 v -1.32292 h 5.29167 m -5.29163,5.29164 h -2.6459 c -2.92248,0 -5.29164,-2.36914 -5.29164,-5.29164 v -7.93746 c 0,-2.9225 2.36916,-5.29163 5.29164,-5.29163 h 2.6459 c 2.92249,0 5.29163,2.36913 5.29163,5.29163 h -5.29167 v -1.32294 c 0,-0.73062 -0.59224,-1.3229 -1.32292,-1.3229"
                 style="fill:none;fill-opacity:1;fill-rule:evenodd;stroke:#3367ff;stroke-width:1.05833;stroke-linecap:round;stroke-linejoin:round;stroke-miterlimit:4;stroke-dasharray:none;stroke-dashoffset:0;stroke-opacity:1" />
              <path
                 style="fill:none;fill-opacity:1;fill-rule:evenodd;stroke:#3367ff;stroke-width:1.05833;stroke-linecap:round;stroke-linejoin:round;stroke-miterlimit:4;stroke-dasharray:none;stroke-dashoffset:0;stroke-opacity:1"
                 d="m 406.84602,314.86954 h -7.93744 m 0,-5.29162 h 7.93744 m 0,-2.64583 h -13.22906 l -6e-5,18.52073 h 5.29163 m 5e-5,-7.93746 h 7.93744"
                 id="path84"
                 inkscape:connector-curvature="0"
                 sodipodi:nodetypes="cccccccccc" />
              <path
                 style="fill:none;fill-opacity:1;fill-rule:evenodd;stroke:#3367ff;stroke-width:1.05833;stroke-linecap:round;stroke-linejoin:round;stroke-miterlimit:4;stroke-dasharray:none;stroke-dashoffset:0;stroke-opacity:1"
                 d="m 446.53354,325.45282 h -5.29164 l -4e-5,-13.2291 c 0,-2.92252 2.36912,-5.29161 5.29164,-5.29161 h 2.64588 c 2.92249,0 5.29164,2.36909 5.29163,5.29161 m -6e-5,13.2291 h -5.29161 v -14.55204 c 0,-0.7306 -0.59232,-1.3229 -1.3229,-1.3229"
                 id="path85"
                 inkscape:connector-curvature="0"
                 sodipodi:nodetypes="ccssscccsc" />
              <path
                 sodipodi:nodetypes="csssscccccccccsc"
                 inkscape:connector-curvature="0"
                 id="path86"
                 d="m 414.78344,314.86956 h 1.32296 c 0.73064,0 1.3229,-0.59226 1.3229,-1.32292 v -2.64588 c 0,-0.73058 -0.5923,-1.3229 -1.3229,-1.3229 h -1.32288 m 5.10076,7.3348 2.83668,8.54018 h -5.02708 l -2.64578,-7.9375 h -0.26458 m 0,7.9375 h -5.29164 l -4e-5,-18.52075 h 7.9375 c 2.9225,0 5.29166,2.36913 5.29166,5.29161"
                 style="fill:none;fill-opacity:1;fill-rule:evenodd;stroke:#3367ff;stroke-width:1.05833;stroke-linecap:round;stroke-linejoin:round;stroke-miterlimit:4;stroke-dasharray:none;stroke-dashoffset:0;stroke-opacity:1" />
              <path
                 style="fill:none;fill-opacity:1;fill-rule:evenodd;stroke:#3367ff;stroke-width:1.05833;stroke-linecap:round;stroke-linejoin:round;stroke-miterlimit:4;stroke-dasharray:none;stroke-dashoffset:0;stroke-opacity:1"
                 d="m 487.54405,309.57792 c 0.73066,0 1.3229,0.59226 1.3229,1.3229 v 6.61456 h -2.6458 m 0,2.64584 h 2.6458 v 5.29162 h 13.22906 m 0,-2.64582 h -7.93743 m 5e-5,-5.29164 h 7.93744 m 0,-2.6458 h -7.93744 m 0,-5.29164 h 7.93744 m 0,-2.64583 -15.87496,2e-5 c -2.9225,0 -5.29164,2.36913 -5.29164,5.29161 l 6e-5,13.2291 h 5.29162"
                 id="path87"
                 inkscape:connector-curvature="0"
                 sodipodi:nodetypes="cscccccccccccccccsscc" />
              <path
                 sodipodi:nodetypes="cccc"
                 inkscape:connector-curvature="0"
                 id="path88"
                 d="m 478.28356,306.93209 h -5.29163 l 5e-5,18.52073 h 5.29166"
                 style="fill:none;fill-opacity:1;fill-rule:evenodd;stroke:#3367ff;stroke-width:1.05833;stroke-linecap:round;stroke-linejoin:round;stroke-miterlimit:4;stroke-dasharray:none;stroke-dashoffset:0;stroke-opacity:1" />
              <path
                 sodipodi:nodetypes="cccc"
                 inkscape:connector-curvature="0"
                 id="path89"
                 d="m 417.69395,284.90539 h -3.175 v -1.32292 h 3.175"
                 style="fill:none;fill-opacity:1;fill-rule:evenodd;stroke:#3367ff;stroke-width:1.05833;stroke-linecap:round;stroke-linejoin:round;stroke-miterlimit:4;stroke-dasharray:none;stroke-dashoffset:0;stroke-opacity:1" />
              <path
                 style="fill:none;fill-opacity:1;fill-rule:evenodd;stroke:#3367ff;stroke-width:1.05833;stroke-linecap:round;stroke-linejoin:round;stroke-miterlimit:4;stroke-dasharray:none;stroke-dashoffset:0;stroke-opacity:1"
                 d="m 449.44392,284.90539 h -3.175 v -1.32292 h 3.175"
                 id="path90"
                 inkscape:connector-curvature="0"
                 sodipodi:nodetypes="cccc" />
            </g>
          </g>
          <g
             id="g74">
            <g
               style="display:inline;fill:#e5ad00;fill-opacity:1;stroke:#ffe699;stroke-width:3.33333;stroke-linecap:round;stroke-linejoin:round;stroke-miterlimit:4;stroke-dasharray:none;stroke-opacity:1"
               id="g71"
               transform="matrix(0.15874999,0,0,0.15874999,242.44481,266.84381)">
              <path
                 sodipodi:nodetypes="csccsc"
                 inkscape:connector-curvature="0"
                 id="path69"
                 d="m 935.59883,119.19129 c -13.78635,32.09386 -34.53665,26.68523 -39.53836,49.04658 -7.65503,34.22364 27.59519,35.30256 32.69359,101.4281 m 0.52364,13.45587 c -0.59916,20.35238 -12.18812,35.3124 -9.89796,50.47629 2.76406,18.30179 8.36238,12.45811 16.21909,35.59316"
                 style="fill:none;fill-opacity:1;stroke:#ffe699;stroke-width:3.33333;stroke-linecap:round;stroke-linejoin:round;stroke-miterlimit:4;stroke-dasharray:none;stroke-opacity:1" />
              <path
                 sodipodi:nodetypes="cscccccssc"
                 inkscape:connector-curvature="0"
                 id="path70"
                 d="m 884.98018,241.92915 c 10.6709,0.0851 23.65848,8.06473 26.53209,27.20593 0.0266,0.17702 0.0521,0.35378 0.0766,0.53026 m -0.12185,13.44378 c -3.73969,23.19159 -25.12373,36.45766 -34.86813,17.512 -4.88817,15.41808 3.22774,29.1733 17.26254,28.50083 m 27.3518,-60.41304 c -1.80805,-23.14073 -13.8199,-57.8272 -41.32184,-63.32806 -16.99051,-3.39838 -37.15065,7.20227 -44.0867,26.70241 -11.18329,31.44167 15.60104,57.23393 28.69383,49.96014"
                 style="fill:none;fill-opacity:1;stroke:#ffe699;stroke-width:3.33333;stroke-linecap:round;stroke-linejoin:round;stroke-miterlimit:4;stroke-dasharray:none;stroke-opacity:1" />
              <path
                 sodipodi:nodetypes="cszcc"
                 inkscape:connector-curvature="0"
                 id="path71"
                 d="m 935.59883,269.66292 h -24.47877 c -3.71503,0 -6.72671,3.01165 -6.72671,6.72671 0,3.71507 3.01168,6.72671 6.72671,6.72671 h 24.47877"
                 style="opacity:1;fill:none;fill-opacity:1;fill-rule:nonzero;stroke:#ffe699;stroke-width:3.33333;stroke-linecap:round;stroke-linejoin:round;stroke-miterlimit:4;stroke-dasharray:none;stroke-dashoffset:0;stroke-opacity:1;paint-order:markers fill stroke" />
            </g>
            <g
               id="g73"
               style="stroke:#99b3ff;stroke-width:0.529167;stroke-dasharray:none;stroke-opacity:1">
              <path
                 sodipodi:nodetypes="cccccccccccc"
                 inkscape:connector-curvature="0"
                 id="path55"
                 d="m 422.72101,293.70288 h -7.93744 m 0,-5.29163 h 7.93744 m 0,-2.64584 h -13.22906 l -6e-5,18.52075 h 13.22907 m 0,-2.64582 h -7.93744 m 5e-5,-5.29164 h 7.93744"
                 style="fill:none;fill-opacity:1;fill-rule:evenodd;stroke:#99b3ff;stroke-width:0.529167;stroke-linecap:round;stroke-linejoin:round;stroke-miterlimit:4;stroke-dasharray:none;stroke-dashoffset:0;stroke-opacity:1" />
              <path
                 style="fill:none;fill-opacity:1;fill-rule:evenodd;stroke:#99b3ff;stroke-width:0.529167;stroke-linecap:round;stroke-linejoin:round;stroke-miterlimit:4;stroke-dasharray:none;stroke-dashoffset:0;stroke-opacity:1"
                 d="m 431.98143,301.64036 h 1.32292 v -5.29166 h -1.32292 v -2.64582 h 6.6146 m 0,10.58328 h -7.93754 c -2.92248,0 -5.29164,-2.36914 -5.29164,-5.29164 v -7.93745 c 0,-2.9225 2.36916,-5.29164 5.29164,-5.29164 h 2.6459 c 2.9225,0 5.29164,2.36914 5.29164,5.29164 h -5.29168 v -1.32294 c 0,-0.73062 -0.59224,-1.3229 -1.32292,-1.3229"
                 id="path58"
                 inkscape:connector-curvature="0"
                 sodipodi:nodetypes="cccccccsssssccsc" />
              <path
                 sodipodi:nodetypes="ccsccsccsccsszssssc"
                 inkscape:connector-curvature="0"
                 id="path59"
                 d="m 462.40852,298.99454 h -5.29167 c -4e-5,2.92252 2.36913,5.29162 5.29161,5.29162 h 2.64588 m 5.29166,-5.2916 c 0,-2.9225 -2.36914,-5.29164 -5.29166,-5.29164 h -1.32292 m 0,-5.29167 c 0.73062,0 1.3229,0.59228 1.3229,1.3229 v 1.32296 h 5.29168 c 0,-2.9225 -2.36914,-5.29166 -5.29166,-5.29166 h -2.64588 c -2.92248,0 -5.29161,2.36916 -5.29161,5.29164 0,2.92247 2.36913,5.29161 5.29161,5.29161 h 1.32296 c 0.73062,0 1.3229,0.59232 1.3229,1.32294 v 2.64584 c 0,0.7306 -0.5923,1.3229 -1.3229,1.3229"
                 style="fill:none;fill-opacity:1;fill-rule:evenodd;stroke:#99b3ff;stroke-width:0.529167;stroke-linecap:round;stroke-linejoin:round;stroke-miterlimit:4;stroke-dasharray:none;stroke-dashoffset:0;stroke-opacity:1" />
              <path
                 sodipodi:nodetypes="cccccccccccc"
                 inkscape:connector-curvature="0"
                 id="path60"
                 d="m 454.47098,293.70288 h -7.93744 m 0,-5.29163 h 7.93744 m 0,-2.64584 h -13.22906 l -6e-5,18.52075 h 13.22907 m 0,-2.64582 h -7.93744 m 5e-5,-5.29164 h 7.93744"
                 style="fill:none;fill-opacity:1;fill-rule:evenodd;stroke:#99b3ff;stroke-width:0.529167;stroke-linecap:round;stroke-linejoin:round;stroke-miterlimit:4;stroke-dasharray:none;stroke-dashoffset:0;stroke-opacity:1" />
              <path
                 sodipodi:nodetypes="csssscccccccccsc"
                 inkscape:connector-curvature="0"
                 id="path61"
                 d="m 398.9085,293.7029 h 1.32296 c 0.73064,0 1.3229,-0.59226 1.3229,-1.32292 v -2.64587 c 0,-0.73058 -0.5923,-1.3229 -1.3229,-1.3229 h -1.32288 m 5.10076,7.33479 2.83668,8.54018 h -5.02708 l -2.64578,-7.9375 h -0.26458 m 0,7.9375 h -5.29164 l -4e-5,-18.52075 h 7.9375 c 2.9225,0 5.29166,2.36914 5.29166,5.29162"
                 style="fill:none;fill-opacity:1;fill-rule:evenodd;stroke:#99b3ff;stroke-width:0.529167;stroke-linecap:round;stroke-linejoin:round;stroke-miterlimit:4;stroke-dasharray:none;stroke-dashoffset:0;stroke-opacity:1" />
              <path
                 sodipodi:nodetypes="cscccssscccccc"
                 inkscape:connector-curvature="0"
                 id="path62"
                 d="m 431.98145,309.57788 c 0.73066,0 1.3229,0.59228 1.3229,1.32292 v 6.61454 h -2.6458 m 7.93748,-5.29162 c 0,-2.9225 -2.36914,-5.29163 -5.29162,-5.29163 h -2.6459 c -2.92249,0 -5.29163,2.36913 -5.29163,5.29163 l 6e-5,13.2291 h 5.29161 m 0,-5.29164 h 2.6458 v 5.29164 h 5.29164"
                 style="fill:none;fill-opacity:1;fill-rule:evenodd;stroke:#99b3ff;stroke-width:0.529167;stroke-linecap:round;stroke-linejoin:round;stroke-miterlimit:4;stroke-dasharray:none;stroke-dashoffset:0;stroke-opacity:1" />
              <path
                 sodipodi:nodetypes="cscccsssssccsc"
                 inkscape:connector-curvature="0"
                 id="path63"
                 d="m 463.73151,322.80702 c 0.73068,0 1.32292,-0.59228 1.32292,-1.32292 v -1.32292 h 5.29167 m -5.29163,5.29164 h -2.6459 c -2.92248,0 -5.29164,-2.36914 -5.29164,-5.29164 v -7.93746 c 0,-2.9225 2.36916,-5.29163 5.29164,-5.29163 h 2.6459 c 2.92249,0 5.29163,2.36913 5.29163,5.29163 h -5.29167 v -1.32294 c 0,-0.73062 -0.59224,-1.3229 -1.32292,-1.3229"
                 style="fill:none;fill-opacity:1;fill-rule:evenodd;stroke:#99b3ff;stroke-width:0.529167;stroke-linecap:round;stroke-linejoin:round;stroke-miterlimit:4;stroke-dasharray:none;stroke-dashoffset:0;stroke-opacity:1" />
              <path
                 style="fill:none;fill-opacity:1;fill-rule:evenodd;stroke:#99b3ff;stroke-width:0.529167;stroke-linecap:round;stroke-linejoin:round;stroke-miterlimit:4;stroke-dasharray:none;stroke-dashoffset:0;stroke-opacity:1"
                 d="m 406.84602,314.86954 h -7.93744 m 0,-5.29162 h 7.93744 m 0,-2.64583 h -13.22906 l -6e-5,18.52073 h 5.29163 m 5e-5,-7.93746 h 7.93744"
                 id="path64"
                 inkscape:connector-curvature="0"
                 sodipodi:nodetypes="cccccccccc" />
              <path
                 style="fill:none;fill-opacity:1;fill-rule:evenodd;stroke:#99b3ff;stroke-width:0.529167;stroke-linecap:round;stroke-linejoin:round;stroke-miterlimit:4;stroke-dasharray:none;stroke-dashoffset:0;stroke-opacity:1"
                 d="m 446.53354,325.45282 h -5.29164 l -4e-5,-13.2291 c 0,-2.92252 2.36912,-5.29161 5.29164,-5.29161 h 2.64588 c 2.92249,0 5.29164,2.36909 5.29163,5.29161 m -6e-5,13.2291 h -5.29161 v -14.55204 c 0,-0.7306 -0.59232,-1.3229 -1.3229,-1.3229"
                 id="path65"
                 inkscape:connector-curvature="0"
                 sodipodi:nodetypes="ccssscccsc" />
              <path
                 sodipodi:nodetypes="csssscccccccccsc"
                 inkscape:connector-curvature="0"
                 id="path66"
                 d="m 414.78344,314.86956 h 1.32296 c 0.73064,0 1.3229,-0.59226 1.3229,-1.32292 v -2.64588 c 0,-0.73058 -0.5923,-1.3229 -1.3229,-1.3229 h -1.32288 m 5.10076,7.3348 2.83668,8.54018 h -5.02708 l -2.64578,-7.9375 h -0.26458 m 0,7.9375 h -5.29164 l -4e-5,-18.52075 h 7.9375 c 2.9225,0 5.29166,2.36913 5.29166,5.29161"
                 style="fill:none;fill-opacity:1;fill-rule:evenodd;stroke:#99b3ff;stroke-width:0.529167;stroke-linecap:round;stroke-linejoin:round;stroke-miterlimit:4;stroke-dasharray:none;stroke-dashoffset:0;stroke-opacity:1" />
              <path
                 style="fill:none;fill-opacity:1;fill-rule:evenodd;stroke:#99b3ff;stroke-width:0.529167;stroke-linecap:round;stroke-linejoin:round;stroke-miterlimit:4;stroke-dasharray:none;stroke-dashoffset:0;stroke-opacity:1"
                 d="m 487.54405,309.57792 c 0.73066,0 1.3229,0.59226 1.3229,1.3229 v 6.61456 h -2.6458 m 0,2.64584 h 2.6458 v 5.29162 h 13.22906 m 0,-2.64582 h -7.93743 m 5e-5,-5.29164 h 7.93744 m 0,-2.6458 h -7.93744 m 0,-5.29164 h 7.93744 m 0,-2.64583 -15.87496,2e-5 c -2.9225,0 -5.29164,2.36913 -5.29164,5.29161 l 6e-5,13.2291 h 5.29162"
                 id="path67"
                 inkscape:connector-curvature="0"
                 sodipodi:nodetypes="cscccccccccccccccsscc" />
              <path
                 sodipodi:nodetypes="cccc"
                 inkscape:connector-curvature="0"
                 id="path68"
                 d="m 478.28356,306.93209 h -5.29163 l 5e-5,18.52073 h 5.29166"
                 style="fill:none;fill-opacity:1;fill-rule:evenodd;stroke:#99b3ff;stroke-width:0.529167;stroke-linecap:round;stroke-linejoin:round;stroke-miterlimit:4;stroke-dasharray:none;stroke-dashoffset:0;stroke-opacity:1" />
              <path
                 sodipodi:nodetypes="cccc"
                 inkscape:connector-curvature="0"
                 id="path72"
                 d="m 417.69395,284.90539 h -3.175 v -1.32292 h 3.175"
                 style="fill:none;fill-opacity:1;fill-rule:evenodd;stroke:#99b3ff;stroke-width:0.529167;stroke-linecap:round;stroke-linejoin:round;stroke-miterlimit:4;stroke-dasharray:none;stroke-dashoffset:0;stroke-opacity:1" />
              <path
                 style="fill:none;fill-opacity:1;fill-rule:evenodd;stroke:#99b3ff;stroke-width:0.529167;stroke-linecap:round;stroke-linejoin:round;stroke-miterlimit:4;stroke-dasharray:none;stroke-dashoffset:0;stroke-opacity:1"
                 d="m 449.44392,284.90539 h -3.175 v -1.32292 h 3.175"
                 id="path73"
                 inkscape:connector-curvature="0"
                 sodipodi:nodetypes="cccc" />
            </g>
          </g>
        </g>
      </g>
    </g>
    <g
       id="g13346"
       style="stroke:#806000;stroke-width:0.264583;stroke-linecap:round;stroke-linejoin:round;stroke-miterlimit:4;stroke-dasharray:none;stroke-opacity:1"
       transform="translate(-129.12414,-148.84298)" />
  </g>
</svg>
